<svg xmlns="http://www.w3.org/2000/svg" viewBox="0 0 102.638 102.638"><path d="M96.846 38.162c-.476-1.677-.35-3.395-.576-5.079-.307-2.284-.693-4.565-1.219-6.808-.438-1.867-1.39-3.551-2.461-5.143-1.231-1.832-2.605-3.579-3.723-5.478-2.41-4.102-5.799-7.157-9.82-9.577-3.46-2.081-7.197-3.566-10.988-4.9C65.976.444 63.812-.017 61.57 0c-4.02.032-8.041.021-12.061.062-.695.008-1.395.152-2.078.296-5.343 1.119-10.371 3.137-15.253 5.513-2.17 1.056-4.144 2.456-5.945 4.093-4.266 3.881-7.258 8.53-8.891 14.093-1.209 4.118-1.691 8.267-1.035 12.503.135.867.041 1.602-.326 2.311-.414.799-.918 1.557-1.432 2.297-.745 1.073-1.549 2.106-2.303 3.172-1.104 1.559-2.135 3.158-3.549 4.483-1.352 1.269-2.099 2.955-2.705 4.659-.981 2.748.666 6.106 4.164 6.188.996.023 2.016-.029 2.988-.225.959-.193 1.644.175 2.037.892.424.773.784 1.672.838 2.537.098 1.53.448 3.003.934 4.408 1.294 3.739 1.721 7.62 2.189 11.505.362 3.013 1.066 5.909 2.578 8.596.713 1.264 1.617 2.016 3.072 2.044 3.004.058 6.025.39 8.967-.601.463-.156.993-.141 1.494-.155.889-.029 1.544.342 1.892 1.195.227.554.393 1.156.729 1.635 1.395 1.986 2.387 4.188 3.538 6.306.812 1.496 1.781 2.909 2.747 4.315.189.273.666.397 1.035.488.599.149 1.039-.291.869-.817-1.439-4.496-2.976-8.956-4.963-13.247a17.377 17.377 0 0 1-.859-2.242c-.281-.926-.146-1.26.684-1.74 1.047-.607 2.14-1.154 2.855-2.172.213-.304.47-.872.338-1.061-.258-.367-.772-.755-1.188-.768-.676-.018-1.443.111-2.023.44a39.44 39.44 0 0 1-6.855 3.084c-1.252 1.207-2.994 1.062-4.498 1.533-.887.277-1.986.029-2.957-.157-1.93-.368-2.982-1.678-3.104-3.577-.184-2.836-1.062-5.516-1.643-8.263-.123-.588-.26-1.175-.347-1.769-.086-.586.243-.992.808-1.021a53.014 53.014 0 0 1 2.111-.061c2.044-.023 3.965-.599 5.836-1.351.444-.178.822-.541 1.199-.855.305-.255.22-.861-.142-1.016-.453-.193-.932-.462-1.4-.462-1.2-.002-2.403.104-3.602.208-7.027.615-5.507 1.306-6.658-4.902-.31-1.667-.743-3.313-1.191-4.949-.264-.964-1.055-1.457-1.982-1.658-.582-.127-1.196-.135-1.797-.146-1.106-.021-2.214.017-3.32-.007-1.336-.026-1.66-.492-1.191-1.645.381-.938.932-1.754 1.574-2.547 1.266-1.56 2.434-3.195 3.631-4.809.838-1.13 1.555-2.369 2.503-3.395 2.399-2.593 2.78-5.936 3.612-9.122-.074-2.639.734-5.161 1.037-7.75.057-.495.16-.994.32-1.465 1.253-3.67 3.561-6.729 5.77-9.839.287-.404.691-.732 1.072-1.059 3.399-2.91 7.094-5.267 11.57-6.15 1.277-.252 2.549-.539 3.836-.731 1.786-.269 3.59-.422 5.375-.694 4.218-.645 8.445-.63 12.597.266 4.104.884 8.264 1.731 11.88 4.092.25.163.537.271.809.401 2.109 1.016 3.92 2.427 5.572 4.075.85.846 1.812 1.574 2.688 2.395.656.613 1.373 1.209 1.857 1.947 1.713 2.61 3.175 5.354 4.162 8.34 2.211 6.674 2.245 13.215-1.057 19.588a182.664 182.664 0 0 0-2.165 4.312c-1.665 3.43-3.312 6.861-5.319 10.121-1.645 2.67-3.357 5.236-5.691 7.359-1.291 1.175-2.121 2.667-2.624 4.337a.988.988 0 0 0 .896 1.271c.545.032 1.093.002 1.64-.009l.074-.089c.073-.034.148-.064.217-.104l.114-.17c-.025.053-.037.123-.078.153-.011.007-.024.01-.036.017l-.126.189c-.055 0-.11.003-.165.004-.483.585-.956 1.181-1.455 1.753-.683.785-1.009 1.733-1.269 2.707-.213.807.678 1.586 1.494 1.301.756-.264 1.487-.604 2.244-.871.143-.051.477.054.508.153.075.243.125.591.002.776-.215.324-.615.521-.85.836a52.814 52.814 0 0 0-1.889 2.691c-.353.538-.438 1.125.05 1.658.458.502 1.05.561 1.658.41.386-.096.74-.311 1.122-.431.453-.142.758.04.887.504.271.975.59 1.943-.473 2.702-.23.164-.367.472-.521.729-.248.416-.068 1.187.389 1.268 1.145.2 1.736.829 1.983 1.938.089.404.536.553.979.498 1.366-.166 1.829-.599 1.842-1.863.033-2.917.039-5.834.036-8.752-.005-3.722.002-7.443-.062-11.165-.025-1.489.455-2.716 1.342-3.888 2.252-2.973 3.918-6.31 5.715-9.558 1.115-2.015 1.904-4.209 3.004-6.235 2.031-3.742 3.428-7.697 4.276-11.854.138-.673.293-1.438.115-2.068zM64.844 20.55c-1.438-.539-2.921-.709-4.385-.64-4.159-.069-8 .998-11.696 2.686-4.312 1.968-7.339 5.177-9.217 9.512-.864 1.994-1.229 4.006-.566 6.144.366 1.183.996 2.191 1.808 3.099a566.135 566.135 0 0 0 5.459 6.039c.428.464.74.881.642 1.572-.246 1.711.066 3.352.444 5.044.319 1.426.715 2.7 1.681 3.769.496.55.709 1.182.869 1.881.662 2.868 3.168 3.743 5.517 3.606.863-.051 1.738-.451 2.546-.826 2-.928 3.137-2.771 4.432-4.424.209-.266.312-.9.145-1.133-.777-1.07-.006-2.512-.79-3.457-1.063-1.279.395-2.262.188-3.4-.054-.296-.08-.596-.129-.892-.24-1.449.09-2.678 1.041-3.872 2.139-2.681 3.844-5.642 5.244-8.777 1.336-2.99 2.072-6.087 1.748-9.373-.316-3.191-1.936-5.417-4.981-6.558zm-6.206 38.592c-1.629 2.186-3.324 2.199-5.276 1.756-.746-.169-1.552-.457-2.003-1.203-.094-.156-.113-.368-.124-.557-.004-.068.106-.167.187-.213.074-.043.178-.041.268-.046l5.362-.35c.291.028.88.069 1.461.162.069.012.186.37.125.451zm.61-3.182c-1.938.35-3.878.678-5.188.904-1.256-.08-1.869-.043-2.439-.183-.34-.083-.646-.409-.906-.684-.27-.284-.17-.913.109-1.054.088-.043.174-.1.268-.121 2.313-.535 4.591-1.272 7.012-1.203.807.022 1.271.432 1.574 1.135.218.513.043 1.121-.43 1.206zm.391-5.285c-2.337.554-4.681 1.08-7.028 1.586-.682.147-1.383.205-1.734.256-1.174-.035-1.889-1.267-1.482-2.047.114-.22.455-.429.709-.451 2.696-.229 5.395-.43 8.094-.606.486-.031.986.055 1.467.153.146.029.286.265.362.436.166.372-.15.617-.388.673zm-6.008-10.228c.016-.162.199-.453.27-.441.257.041.541.136.729.307.103.096.035.379.045.578l-.207.552c-.227-.144-.487-.253-.666-.442-.123-.129-.188-.373-.171-.554zm10.957-6.42c-1.344 3.521-3.422 6.59-5.599 9.612-.587.815-1.165 1.641-1.806 2.412-.504.606-1.225.624-1.933.433-.114-.03-.239-.301-.225-.449.017-.181.131-.431.277-.509 1.219-.646 1.559-1.805 1.732-3.016.2-1.392.397-2.737.992-4.066.365-.815.17-1.917.292-2.886.052-.417-.512-1.046-.94-1.015-.365.026-.758.197-1.062.411-.225.158-.408.47-.476.746-.388 1.592-1.443 1.999-2.933 1.766-.527-.082-.948-.241-1.223-.731-.146-.259-.354-.486-.56-.702-.247-.259-.909-.106-.979.242-.093.482-.278 1.027-.146 1.459.918 2.96 1.488 6.052 3.16 8.739.252.406-.088.504-.343.571-.775.206-1.56.375-2.341.562-.525.125-1.049.081-1.346-.397-1.754-2.835-4.077-5.226-6.109-7.843-.246-.317-.539-.615-.711-.971-.58-1.191-.93-2.366-.468-3.76.521-1.573 1.3-2.922 2.452-4.089 2.829-2.869 6.295-4.63 10.105-5.762 1.736-.516 3.518-.847 5.805-.671.351 0 1.161-.065 1.959.013 2.236.217 3.44 1.51 3.535 3.722.096 2.143-.344 4.171-1.109 6.179zm-29.11 18.581c.394.015.846.029 1.18-.138 1.793-.892 3.064-2.236 3.43-4.284.119-.672-.491-1.479-1.139-1.536-.098-.011-.203-.046-.297-.029-1.975.332-3.58 1.313-4.728 2.932-.922 1.3-.024 2.997 1.554 3.055zm40.438-6.619c.633-.342.797-1.312.266-1.777-.292-.255-.634-.535-.993-.612-.775-.166-1.577-.208-2.716-.342-.449.088-1.221.216-1.979.4-.293.07-.479.795-.314 1.026.929 1.305 4.31 2.073 5.736 1.305zm-41.07-11.052c-.721-.283-1.477-.477-1.758-.564-1.402.032-2.305-.002-3.068.604-.42.333-.658.738-.576 1.281.077.527.361.989.868 1.107 1.741.405 3.345.124 4.683-1.16.354-.338.3-1.093-.149-1.268zm4.394-7.905c.484.152.98.072 1.359-.334.359-.385.438-1.217.045-1.642a25.842 25.842 0 0 0-2.126-2.034c-.198-.173-.556-.16-.675-.19a1.244 1.244 0 0 0-1.293 1.654c.465 1.291 1.391 2.137 2.69 2.546zM52.49 16.8c.207-.55.301-1.141.447-1.721-.138-.407-.213-.808-.402-1.145a1.302 1.302 0 0 0-1.232-.696c-.535.019-.982.276-1.197.762-.486 1.093-.373 2.138.414 3.069.566.67 1.666.535 1.97-.269zm17.082 2.74c.818-.713 1.621-1.451 2.352-2.253.232-.253.342-.747.285-1.095-.054-.322-.404-.595-.564-.811-.277.021-.39-.002-.463.039-1.346.764-2.323 1.833-2.654 3.378-.052.238.096.625.284.773.157.126.6.107.76-.031zm9.699 12.761c.172-.059.304-.245.447-.379.286-.268.189-.922-.168-1.002-.672-.15-1.352-.257-2.029-.382-.008.043-.012.087-.02.131-.498 0-1.004-.051-1.492.022-.25.037-.682.327-.662.443.057.353.205.82.476.985 1.093.664 2.278.582 3.448.182z" fill-rule="evenodd" clip-rule="evenodd"/></svg>