<?xml version="1.0" encoding="iso-8859-1"?>
<!-- Generator: Adobe Illustrator 19.0.0, SVG Export Plug-In . SVG Version: 6.00 Build 0)  -->
<svg version="1.1" id="Capa_1" xmlns="http://www.w3.org/2000/svg" xmlns:xlink="http://www.w3.org/1999/xlink" x="0px" y="0px"
	 viewBox="0 0 102.638 102.638" style="enable-background:new 0 0 102.638 102.638;" xml:space="preserve">
<g id="_x0A_head-idea">
	<g>
		<path style="fill-rule:evenodd;clip-rule:evenodd;" d="M96.846,38.162c-0.476-1.677-0.35-3.395-0.576-5.079
			c-0.307-2.284-0.693-4.565-1.219-6.808c-0.438-1.867-1.39-3.551-2.461-5.143c-1.231-1.832-2.605-3.579-3.723-5.478
			c-2.41-4.102-5.799-7.157-9.82-9.577c-3.46-2.081-7.197-3.566-10.988-4.9C65.976,0.444,63.812-0.017,61.57,0
			c-4.02,0.032-8.041,0.021-12.061,0.062c-0.695,0.008-1.395,0.152-2.078,0.296C42.088,1.477,37.06,3.495,32.178,5.871
			c-2.17,1.056-4.144,2.456-5.945,4.093c-4.266,3.881-7.258,8.53-8.891,14.093c-1.209,4.118-1.691,8.267-1.035,12.503
			c0.135,0.867,0.041,1.602-0.326,2.311c-0.414,0.799-0.918,1.557-1.432,2.297c-0.745,1.073-1.549,2.106-2.303,3.172
			c-1.104,1.559-2.135,3.158-3.549,4.483c-1.352,1.269-2.099,2.955-2.705,4.659c-0.981,2.748,0.666,6.106,4.164,6.188
			c0.996,0.023,2.016-0.029,2.988-0.225c0.959-0.193,1.644,0.175,2.037,0.892c0.424,0.773,0.784,1.672,0.838,2.537
			c0.098,1.53,0.448,3.003,0.934,4.408c1.294,3.739,1.721,7.62,2.189,11.505c0.362,3.013,1.066,5.909,2.578,8.596
			c0.713,1.264,1.617,2.016,3.072,2.044c3.004,0.058,6.025,0.39,8.967-0.601c0.463-0.156,0.993-0.141,1.494-0.155
			c0.889-0.029,1.544,0.342,1.892,1.195c0.227,0.554,0.393,1.156,0.729,1.635c1.395,1.986,2.387,4.188,3.538,6.306
			c0.812,1.496,1.781,2.909,2.747,4.315c0.189,0.273,0.666,0.397,1.035,0.488c0.599,0.149,1.039-0.291,0.869-0.817
			c-1.439-4.496-2.976-8.956-4.963-13.247c-0.336-0.725-0.627-1.479-0.859-2.242c-0.281-0.926-0.146-1.26,0.684-1.74
			c1.047-0.607,2.14-1.154,2.855-2.172c0.213-0.304,0.47-0.872,0.338-1.061c-0.258-0.367-0.772-0.755-1.188-0.768
			c-0.676-0.018-1.443,0.111-2.023,0.44c-2.191,1.247-4.471,2.275-6.855,3.084c-1.252,1.207-2.994,1.062-4.498,1.533
			c-0.887,0.277-1.986,0.029-2.957-0.157c-1.93-0.368-2.982-1.678-3.104-3.577c-0.184-2.836-1.062-5.516-1.643-8.263
			c-0.123-0.588-0.26-1.175-0.347-1.769c-0.086-0.586,0.243-0.992,0.808-1.021c0.703-0.037,1.406-0.052,2.111-0.061
			c2.044-0.023,3.965-0.599,5.836-1.351c0.444-0.178,0.822-0.541,1.199-0.855c0.305-0.255,0.22-0.861-0.142-1.016
			c-0.453-0.193-0.932-0.462-1.4-0.462c-1.2-0.002-2.403,0.104-3.602,0.208c-7.027,0.615-5.507,1.306-6.658-4.902
			c-0.31-1.667-0.743-3.313-1.191-4.949c-0.264-0.964-1.055-1.457-1.982-1.658c-0.582-0.127-1.196-0.135-1.797-0.146
			c-1.106-0.021-2.214,0.017-3.32-0.007c-1.336-0.026-1.66-0.492-1.191-1.645c0.381-0.938,0.932-1.754,1.574-2.547
			c1.266-1.56,2.434-3.195,3.631-4.809c0.838-1.13,1.555-2.369,2.503-3.395c2.399-2.593,2.78-5.936,3.612-9.122
			c-0.074-2.639,0.734-5.161,1.037-7.75c0.057-0.495,0.16-0.994,0.32-1.465c1.253-3.67,3.561-6.729,5.77-9.839
			c0.287-0.404,0.691-0.732,1.072-1.059c3.399-2.91,7.094-5.267,11.57-6.15c1.277-0.252,2.549-0.539,3.836-0.731
			c1.786-0.269,3.59-0.422,5.375-0.694c4.218-0.645,8.445-0.63,12.597,0.266c4.104,0.884,8.264,1.731,11.88,4.092
			c0.25,0.163,0.537,0.271,0.809,0.401c2.109,1.016,3.92,2.427,5.572,4.075c0.85,0.846,1.812,1.574,2.688,2.395
			c0.656,0.613,1.373,1.209,1.857,1.947c1.713,2.61,3.175,5.354,4.162,8.34c2.211,6.674,2.245,13.215-1.057,19.588
			c-0.74,1.428-1.463,2.865-2.165,4.312c-1.665,3.43-3.312,6.861-5.319,10.121c-1.645,2.67-3.357,5.236-5.691,7.359
			c-1.291,1.175-2.121,2.667-2.624,4.337c-0.181,0.601,0.238,1.231,0.896,1.271c0.545,0.032,1.093,0.002,1.64-0.009
			c0.025-0.03,0.05-0.06,0.074-0.089c0.073-0.034,0.148-0.064,0.217-0.104c0.038-0.057,0.076-0.114,0.114-0.17
			c-0.025,0.053-0.037,0.123-0.078,0.153c-0.011,0.007-0.024,0.01-0.036,0.017c-0.042,0.063-0.084,0.127-0.126,0.189
			c-0.055,0-0.11,0.003-0.165,0.004c-0.483,0.585-0.956,1.181-1.455,1.753c-0.683,0.785-1.009,1.733-1.269,2.707
			c-0.213,0.807,0.678,1.586,1.494,1.301c0.756-0.264,1.487-0.604,2.244-0.871c0.143-0.051,0.477,0.054,0.508,0.153
			c0.075,0.243,0.125,0.591,0.002,0.776c-0.215,0.324-0.615,0.521-0.85,0.836c-0.656,0.877-1.289,1.775-1.889,2.691
			c-0.353,0.538-0.438,1.125,0.05,1.658c0.458,0.502,1.05,0.561,1.658,0.41c0.386-0.096,0.74-0.311,1.122-0.431
			c0.453-0.142,0.758,0.04,0.887,0.504c0.271,0.975,0.59,1.943-0.473,2.702c-0.23,0.164-0.367,0.472-0.521,0.729
			c-0.248,0.416-0.068,1.187,0.389,1.268c1.145,0.2,1.736,0.829,1.983,1.938c0.089,0.404,0.536,0.553,0.979,0.498
			c1.366-0.166,1.829-0.599,1.842-1.863c0.033-2.917,0.039-5.834,0.036-8.752c-0.005-3.722,0.002-7.443-0.062-11.165
			c-0.025-1.489,0.455-2.716,1.342-3.888c2.252-2.973,3.918-6.31,5.715-9.558c1.115-2.015,1.904-4.209,3.004-6.235
			c2.031-3.742,3.428-7.697,4.276-11.854C96.869,39.557,97.024,38.792,96.846,38.162z M64.844,20.55
			c-1.438-0.539-2.921-0.709-4.385-0.64c-4.159-0.069-8,0.998-11.696,2.686c-4.312,1.968-7.339,5.177-9.217,9.512
			c-0.864,1.994-1.229,4.006-0.566,6.144c0.366,1.183,0.996,2.191,1.808,3.099c1.809,2.021,3.62,4.043,5.459,6.039
			c0.428,0.464,0.74,0.881,0.642,1.572c-0.246,1.711,0.066,3.352,0.444,5.044c0.319,1.426,0.715,2.7,1.681,3.769
			c0.496,0.55,0.709,1.182,0.869,1.881c0.662,2.868,3.168,3.743,5.517,3.606c0.863-0.051,1.738-0.451,2.546-0.826
			c2-0.928,3.137-2.771,4.432-4.424c0.209-0.266,0.312-0.9,0.145-1.133c-0.777-1.07-0.006-2.512-0.79-3.457
			c-1.063-1.279,0.395-2.262,0.188-3.4c-0.054-0.296-0.08-0.596-0.129-0.892c-0.24-1.449,0.09-2.678,1.041-3.872
			c2.139-2.681,3.844-5.642,5.244-8.777c1.336-2.99,2.072-6.087,1.748-9.373C69.509,23.917,67.889,21.691,64.844,20.55z
			 M58.638,59.142c-1.629,2.186-3.324,2.199-5.276,1.756c-0.746-0.169-1.552-0.457-2.003-1.203
			c-0.094-0.156-0.113-0.368-0.124-0.557c-0.004-0.068,0.106-0.167,0.187-0.213c0.074-0.043,0.178-0.041,0.268-0.046
			c1.686-0.111,3.373-0.22,5.362-0.35c0.291,0.028,0.88,0.069,1.461,0.162C58.582,58.703,58.699,59.061,58.638,59.142z
			 M59.248,55.96c-1.938,0.35-3.878,0.678-5.188,0.904c-1.256-0.08-1.869-0.043-2.439-0.183c-0.34-0.083-0.646-0.409-0.906-0.684
			c-0.27-0.284-0.17-0.913,0.109-1.054c0.088-0.043,0.174-0.1,0.268-0.121c2.313-0.535,4.591-1.272,7.012-1.203
			c0.807,0.022,1.271,0.432,1.574,1.135C59.896,55.267,59.721,55.875,59.248,55.96z M59.639,50.675
			c-2.337,0.554-4.681,1.08-7.028,1.586c-0.682,0.147-1.383,0.205-1.734,0.256c-1.174-0.035-1.889-1.267-1.482-2.047
			c0.114-0.22,0.455-0.429,0.709-0.451c2.696-0.229,5.395-0.43,8.094-0.606c0.486-0.031,0.986,0.055,1.467,0.153
			c0.146,0.029,0.286,0.265,0.362,0.436C60.193,50.374,59.877,50.619,59.639,50.675z M53.631,40.447
			c0.016-0.162,0.199-0.453,0.27-0.441c0.257,0.041,0.541,0.136,0.729,0.307c0.103,0.096,0.035,0.379,0.045,0.578
			c-0.068,0.184-0.139,0.368-0.207,0.552c-0.227-0.144-0.487-0.253-0.666-0.442C53.679,40.872,53.614,40.628,53.631,40.447z
			 M64.588,34.027c-1.344,3.521-3.422,6.59-5.599,9.612c-0.587,0.815-1.165,1.641-1.806,2.412c-0.504,0.606-1.225,0.624-1.933,0.433
			c-0.114-0.03-0.239-0.301-0.225-0.449c0.017-0.181,0.131-0.431,0.277-0.509c1.219-0.646,1.559-1.805,1.732-3.016
			c0.2-1.392,0.397-2.737,0.992-4.066c0.365-0.815,0.17-1.917,0.292-2.886c0.052-0.417-0.512-1.046-0.94-1.015
			c-0.365,0.026-0.758,0.197-1.062,0.411c-0.225,0.158-0.408,0.47-0.476,0.746c-0.388,1.592-1.443,1.999-2.933,1.766
			c-0.527-0.082-0.948-0.241-1.223-0.731c-0.146-0.259-0.354-0.486-0.56-0.702c-0.247-0.259-0.909-0.106-0.979,0.242
			c-0.093,0.482-0.278,1.027-0.146,1.459c0.918,2.96,1.488,6.052,3.16,8.739c0.252,0.406-0.088,0.504-0.343,0.571
			c-0.775,0.206-1.56,0.375-2.341,0.562c-0.525,0.125-1.049,0.081-1.346-0.397c-1.754-2.835-4.077-5.226-6.109-7.843
			c-0.246-0.317-0.539-0.615-0.711-0.971c-0.58-1.191-0.93-2.366-0.468-3.76c0.521-1.573,1.3-2.922,2.452-4.089
			c2.829-2.869,6.295-4.63,10.105-5.762c1.736-0.516,3.518-0.847,5.805-0.671c0.351,0,1.161-0.065,1.959,0.013
			c2.236,0.217,3.44,1.51,3.535,3.722C65.793,29.991,65.353,32.019,64.588,34.027z M35.478,52.608
			c0.394,0.015,0.846,0.029,1.18-0.138c1.793-0.892,3.064-2.236,3.43-4.284c0.119-0.672-0.491-1.479-1.139-1.536
			c-0.098-0.011-0.203-0.046-0.297-0.029c-1.975,0.332-3.58,1.313-4.728,2.932C33.002,50.853,33.9,52.55,35.478,52.608z
			 M75.916,45.989c0.633-0.342,0.797-1.312,0.266-1.777c-0.292-0.255-0.634-0.535-0.993-0.612c-0.775-0.166-1.577-0.208-2.716-0.342
			c-0.449,0.088-1.221,0.216-1.979,0.4c-0.293,0.07-0.479,0.795-0.314,1.026C71.109,45.989,74.49,46.757,75.916,45.989z
			 M34.846,34.937c-0.721-0.283-1.477-0.477-1.758-0.564c-1.402,0.032-2.305-0.002-3.068,0.604c-0.42,0.333-0.658,0.738-0.576,1.281
			c0.077,0.527,0.361,0.989,0.868,1.107c1.741,0.405,3.345,0.124,4.683-1.16C35.349,35.867,35.295,35.112,34.846,34.937z
			 M39.24,27.032c0.484,0.152,0.98,0.072,1.359-0.334c0.359-0.385,0.438-1.217,0.045-1.642c-0.664-0.721-1.385-1.394-2.126-2.034
			c-0.198-0.173-0.556-0.16-0.675-0.19c-0.957-0.072-1.59,0.834-1.293,1.654C37.015,25.777,37.941,26.623,39.24,27.032z M52.49,16.8
			c0.207-0.55,0.301-1.141,0.447-1.721c-0.138-0.407-0.213-0.808-0.402-1.145c-0.254-0.457-0.691-0.717-1.232-0.696
			c-0.535,0.019-0.982,0.276-1.197,0.762c-0.486,1.093-0.373,2.138,0.414,3.069C51.086,17.739,52.186,17.604,52.49,16.8z
			 M69.572,19.54c0.818-0.713,1.621-1.451,2.352-2.253c0.232-0.253,0.342-0.747,0.285-1.095c-0.054-0.322-0.404-0.595-0.564-0.811
			c-0.277,0.021-0.39-0.002-0.463,0.039c-1.346,0.764-2.323,1.833-2.654,3.378c-0.052,0.238,0.096,0.625,0.284,0.773
			C68.969,19.697,69.412,19.678,69.572,19.54z M79.271,32.301c0.172-0.059,0.304-0.245,0.447-0.379
			c0.286-0.268,0.189-0.922-0.168-1.002c-0.672-0.15-1.352-0.257-2.029-0.382c-0.008,0.043-0.012,0.087-0.02,0.131
			c-0.498,0-1.004-0.051-1.492,0.022c-0.25,0.037-0.682,0.327-0.662,0.443c0.057,0.353,0.205,0.82,0.476,0.985
			C76.916,32.783,78.101,32.701,79.271,32.301z"/>
	</g>
</g>
<g>
</g>
<g>
</g>
<g>
</g>
<g>
</g>
<g>
</g>
<g>
</g>
<g>
</g>
<g>
</g>
<g>
</g>
<g>
</g>
<g>
</g>
<g>
</g>
<g>
</g>
<g>
</g>
<g>
</g>
</svg>
